<svg width="32" height="32" viewBox="0 0 32 32" fill="none" xmlns="http://www.w3.org/2000/svg">
<path d="M14.6632 25.0005C14.5318 25.0011 14.4016 24.9754 14.2803 24.9251C14.1589 24.8747 14.0488 24.8006 13.9565 24.7071L5.95652 16.7071C5.76925 16.5196 5.66406 16.2654 5.66406 16.0004C5.66406 15.7354 5.76925 15.4813 5.95652 15.2938L13.9565 7.29378C14.1461 7.11714 14.3968 7.02098 14.6559 7.02555C14.9149 7.03012 15.1621 7.13507 15.3453 7.31828C15.5286 7.5015 15.6335 7.74868 15.6381 8.00775C15.6427 8.26682 15.5465 8.51755 15.3698 8.70711L8.07652 16.0004L15.3698 23.2938C15.5571 23.4813 15.6623 23.7354 15.6623 24.0005C15.6623 24.2655 15.5571 24.5196 15.3698 24.7071C15.2775 24.8006 15.1675 24.8747 15.0461 24.9251C14.9248 24.9754 14.7946 25.0011 14.6632 25.0005Z" fill="white"/>
<path d="M25.3307 17H6.66406C6.39885 17 6.14449 16.8946 5.95696 16.7071C5.76942 16.5196 5.66406 16.2652 5.66406 16C5.66406 15.7348 5.76942 15.4804 5.95696 15.2929C6.14449 15.1054 6.39885 15 6.66406 15H25.3307C25.5959 15 25.8503 15.1054 26.0378 15.2929C26.2254 15.4804 26.3307 15.7348 26.3307 16C26.3307 16.2652 26.2254 16.5196 26.0378 16.7071C25.8503 16.8946 25.5959 17 25.3307 17Z" fill="white"/>
</svg>
