<svg width="30" height="30" viewBox="0 0 30 30" fill="none" xmlns="http://www.w3.org/2000/svg">
<path d="M11.875 25.625C11.5042 25.625 11.1416 25.515 10.8333 25.309C10.525 25.103 10.2846 24.8101 10.1427 24.4675C10.0008 24.1249 9.96368 23.7479 10.036 23.3842C10.1084 23.0205 10.287 22.6864 10.5492 22.4242C10.8114 22.162 11.1455 21.9834 11.5092 21.911C11.8729 21.8387 12.2499 21.8758 12.5925 22.0177C12.9351 22.1596 13.228 22.4 13.434 22.7083C13.64 23.0166 13.75 23.3792 13.75 23.75C13.75 24.2473 13.5525 24.7242 13.2008 25.0758C12.8492 25.4275 12.3723 25.625 11.875 25.625Z" fill="black"/>
<path d="M20 25.625C19.6292 25.625 19.2666 25.515 18.9583 25.309C18.65 25.103 18.4096 24.8101 18.2677 24.4675C18.1258 24.1249 18.0887 23.7479 18.161 23.3842C18.2334 23.0205 18.412 22.6864 18.6742 22.4242C18.9364 22.162 19.2705 21.9834 19.6342 21.911C19.9979 21.8387 20.3749 21.8758 20.7175 22.0177C21.0601 22.1596 21.353 22.4 21.559 22.7083C21.765 23.0166 21.875 23.3792 21.875 23.75C21.875 24.2473 21.6775 24.7242 21.3258 25.0758C20.9742 25.4275 20.4973 25.625 20 25.625Z" fill="black"/>
<path d="M22.1875 20.625H9.6875C9.46741 20.623 9.25485 20.5446 9.08614 20.4032C8.91743 20.2619 8.80304 20.0663 8.7625 19.85L6.4 6.875H4.6875C4.43886 6.875 4.2004 6.77623 4.02459 6.60041C3.84877 6.4246 3.75 6.18614 3.75 5.9375C3.75 5.68886 3.84877 5.4504 4.02459 5.27459C4.2004 5.09877 4.43886 5 4.6875 5H7.1875C7.40759 5.00203 7.62015 5.08041 7.78886 5.22177C7.95757 5.36312 8.07196 5.55867 8.1125 5.775L8.65 8.75H24.6875C24.8299 8.75045 24.9703 8.78333 25.0981 8.84614C25.2259 8.90895 25.3377 9.00004 25.425 9.1125C25.5112 9.22477 25.5716 9.35468 25.6018 9.49296C25.6321 9.63124 25.6315 9.77449 25.6 9.9125L23.1 19.9125C23.0477 20.1152 22.9298 20.295 22.7648 20.4238C22.5998 20.5527 22.3969 20.6234 22.1875 20.625V20.625ZM10.475 18.75H21.45L23.4375 10.625H8.9875L10.475 18.75Z" fill="black"/>
</svg>
