<svg width="30" height="30" viewBox="0 0 30 30" fill="none" xmlns="http://www.w3.org/2000/svg">
<path d="M24.6875 14.375C24.4845 14.3759 24.2868 14.31 24.125 14.1875L14.6875 7.1125L5.25 14.1875C5.05109 14.3367 4.80106 14.4007 4.55492 14.3656C4.30878 14.3304 4.08669 14.1989 3.9375 14C3.78832 13.8011 3.72426 13.5511 3.75943 13.3049C3.79459 13.0588 3.92609 12.8367 4.125 12.6875L14.125 5.1875C14.2873 5.06579 14.4847 5 14.6875 5C14.8903 5 15.0877 5.06579 15.25 5.1875L25.25 12.6875C25.4315 12.8349 25.5514 13.0449 25.5861 13.2762C25.6208 13.5074 25.5678 13.7433 25.4375 13.9375C25.3578 14.0662 25.2478 14.1734 25.117 14.2497C24.9863 14.326 24.8388 14.369 24.6875 14.375V14.375Z" fill="black"/>
<path d="M22.1875 24.375H7.1875C6.93987 24.3718 6.70329 24.272 6.52817 24.0968C6.35305 23.9217 6.25324 23.6851 6.25 23.4375V11.5625C6.25 11.3139 6.34877 11.0754 6.52459 10.8996C6.7004 10.7238 6.93886 10.625 7.1875 10.625C7.43614 10.625 7.6746 10.7238 7.85041 10.8996C8.02623 11.0754 8.125 11.3139 8.125 11.5625V22.5H21.25V11.5625C21.25 11.3139 21.3488 11.0754 21.5246 10.8996C21.7004 10.7238 21.9389 10.625 22.1875 10.625C22.4361 10.625 22.6746 10.7238 22.8504 10.8996C23.0262 11.0754 23.125 11.3139 23.125 11.5625V23.4375C23.1218 23.6851 23.022 23.9217 22.8468 24.0968C22.6717 24.272 22.4351 24.3718 22.1875 24.375V24.375Z" fill="black"/>
<path d="M17.1875 24.375C16.9399 24.3718 16.7033 24.2719 16.5282 24.0968C16.353 23.9217 16.2532 23.6851 16.25 23.4375V15.625H13.125V23.4375C13.125 23.6861 13.0262 23.9246 12.8504 24.1004C12.6746 24.2762 12.4361 24.375 12.1875 24.375C11.9389 24.375 11.7004 24.2762 11.5246 24.1004C11.3488 23.9246 11.25 23.6861 11.25 23.4375V14.6875C11.2532 14.4399 11.353 14.2033 11.5282 14.0282C11.7033 13.853 11.9399 13.7532 12.1875 13.75H17.1875C17.4351 13.7532 17.6717 13.853 17.8468 14.0282C18.022 14.2033 18.1218 14.4399 18.125 14.6875V23.4375C18.1218 23.6851 18.022 23.9217 17.8468 24.0968C17.6717 24.2719 17.4351 24.3718 17.1875 24.375Z" fill="black"/>
</svg>
