<svg width="24" height="24" viewBox="0 0 24 24" fill="none" xmlns="http://www.w3.org/2000/svg">
<path d="M19.75 11.5C19.5876 11.5007 19.4295 11.448 19.3 11.35L11.75 5.69L4.2 11.35C4.04087 11.4693 3.84085 11.5206 3.64394 11.4925C3.44702 11.4643 3.26935 11.3591 3.15 11.2C3.03066 11.0409 2.97941 10.8408 3.00754 10.6439C3.03567 10.447 3.14087 10.2693 3.3 10.15L11.3 4.15C11.4298 4.05263 11.5877 4 11.75 4C11.9123 4 12.0702 4.05263 12.2 4.15L20.2 10.15C20.3452 10.2679 20.4411 10.4359 20.4689 10.6209C20.4966 10.8059 20.4542 10.9946 20.35 11.15C20.2863 11.253 20.1982 11.3388 20.0936 11.3998C19.989 11.4608 19.871 11.4952 19.75 11.5Z" fill="black"/>
<path d="M17.75 19.5H5.75C5.55189 19.4974 5.36263 19.4176 5.22253 19.2775C5.08244 19.1374 5.00259 18.9481 5 18.75V9.25C5 9.05109 5.07902 8.86032 5.21967 8.71967C5.36032 8.57902 5.55109 8.5 5.75 8.5C5.94891 8.5 6.13968 8.57902 6.28033 8.71967C6.42098 8.86032 6.5 9.05109 6.5 9.25V18H17V9.25C17 9.05109 17.079 8.86032 17.2197 8.71967C17.3603 8.57902 17.5511 8.5 17.75 8.5C17.9489 8.5 18.1397 8.57902 18.2803 8.71967C18.421 8.86032 18.5 9.05109 18.5 9.25V18.75C18.4974 18.9481 18.4176 19.1374 18.2775 19.2775C18.1374 19.4176 17.9481 19.4974 17.75 19.5Z" fill="black"/>
<path d="M13.75 19.5C13.5519 19.4974 13.3626 19.4176 13.2225 19.2775C13.0824 19.1374 13.0026 18.9481 13 18.75V12.5H10.5V18.75C10.5 18.9489 10.421 19.1397 10.2803 19.2803C10.1397 19.421 9.94891 19.5 9.75 19.5C9.55109 19.5 9.36032 19.421 9.21967 19.2803C9.07902 19.1397 9 18.9489 9 18.75V11.75C9.00259 11.5519 9.08244 11.3626 9.22253 11.2225C9.36263 11.0824 9.55189 11.0026 9.75 11H13.75C13.9481 11.0026 14.1374 11.0824 14.2775 11.2225C14.4176 11.3626 14.4974 11.5519 14.5 11.75V18.75C14.4974 18.9481 14.4176 19.1374 14.2775 19.2775C14.1374 19.4176 13.9481 19.4974 13.75 19.5Z" fill="black"/>
</svg>
