<svg width="22" height="22" viewBox="0 0 22 22" fill="none" xmlns="http://www.w3.org/2000/svg">
<path d="M10.9987 19.4793C10.8639 19.4806 10.7322 19.4388 10.6229 19.3601C10.3479 19.1859 3.89453 14.8501 3.89453 9.57926C3.89453 7.69512 4.643 5.88815 5.97529 4.55586C7.30758 3.22357 9.11456 2.4751 10.9987 2.4751C12.8828 2.4751 14.6898 3.22357 16.0221 4.55586C17.3544 5.88815 18.1029 7.69512 18.1029 9.57926C18.1029 14.8501 11.6862 19.1859 11.3745 19.3601C11.2652 19.4388 11.1335 19.4806 10.9987 19.4793V19.4793ZM10.9987 3.89593C9.48567 3.89106 8.03255 4.48681 6.95838 5.55238C5.88421 6.61795 5.27681 8.06625 5.26953 9.57926C5.26953 13.4384 9.66036 16.9676 10.9987 17.9484C12.337 16.9676 16.7279 13.4384 16.7279 9.57926C16.7206 8.06625 16.1132 6.61795 15.039 5.55238C13.9649 4.48681 12.5117 3.89106 10.9987 3.89593V3.89593Z" fill="white"/>
<path d="M10.9974 11.6877C10.4988 11.6877 10.0114 11.5398 9.5969 11.2628C9.18235 10.9858 8.85925 10.5921 8.66845 10.1315C8.47766 9.67089 8.42773 9.16403 8.525 8.67504C8.62227 8.18605 8.86235 7.73688 9.2149 7.38433C9.56744 7.03179 10.0166 6.7917 10.5056 6.69443C10.9946 6.59717 11.5015 6.64709 11.9621 6.83788C12.4227 7.02868 12.8164 7.35178 13.0934 7.76633C13.3704 8.18088 13.5182 8.66826 13.5182 9.16683C13.5182 9.8354 13.2526 10.4766 12.7799 10.9493C12.3071 11.4221 11.666 11.6877 10.9974 11.6877ZM10.9974 8.021C10.7708 8.021 10.5492 8.0882 10.3608 8.2141C10.1724 8.34001 10.0255 8.51897 9.93879 8.72834C9.85206 8.93771 9.82937 9.1681 9.87358 9.39037C9.91779 9.61264 10.0269 9.81681 10.1872 9.97706C10.3474 10.1373 10.5516 10.2464 10.7739 10.2906C10.9961 10.3349 11.2265 10.3122 11.4359 10.2254C11.6453 10.1387 11.8242 9.99185 11.9501 9.80342C12.076 9.61499 12.1432 9.39345 12.1432 9.16683C12.1432 8.86294 12.0225 8.57149 11.8076 8.3566C11.5927 8.14172 11.3013 8.021 10.9974 8.021V8.021Z" fill="white"/>
</svg>
