<svg width="32" height="32" viewBox="0 0 32 32" fill="none" xmlns="http://www.w3.org/2000/svg">
<path d="M16.1201 27.5465C15.6342 27.546 15.1488 27.5148 14.6668 27.4532C12.0999 27.119 9.71559 25.9452 7.88519 24.1148C6.0548 22.2844 4.88107 19.9001 4.54681 17.3332C4.16078 14.432 4.88438 11.4921 6.57286 9.10151C8.26135 6.71093 10.7902 5.04603 13.6535 4.43988C13.9674 4.3686 14.2953 4.39128 14.5964 4.50508C14.8976 4.61889 15.1585 4.8188 15.3468 5.07988C15.5398 5.3502 15.6489 5.67129 15.6608 6.00319C15.6727 6.3351 15.5866 6.66316 15.4135 6.94655C14.5997 8.34278 14.2892 9.97574 14.5335 11.5732C14.7599 13.041 15.4481 14.3984 16.4982 15.4485C17.5483 16.4986 18.9057 17.1868 20.3735 17.4132C21.9727 17.6659 23.6099 17.3497 25.0002 16.5199C25.2861 16.3505 25.6156 16.2691 25.9475 16.2857C26.2795 16.3023 26.5992 16.4162 26.8668 16.6132C27.1281 16.7981 27.3285 17.0566 27.4425 17.3558C27.5565 17.655 27.5789 17.9813 27.5068 18.2932C26.966 20.9116 25.5372 23.2627 23.4623 24.9489C21.3874 26.635 18.7938 27.5527 16.1201 27.5465ZM13.3335 6.66655C11.7244 7.13943 10.266 8.02283 9.10158 9.22994C7.9372 10.4371 7.10692 11.9263 6.69233 13.5515C6.27774 15.1766 6.29311 16.8816 6.73691 18.499C7.18072 20.1164 8.0377 21.5905 9.22363 22.7764C10.4096 23.9623 11.8837 24.8193 13.501 25.2631C15.1184 25.7069 16.8235 25.7223 18.4486 25.3077C20.0737 24.8931 21.563 24.0628 22.7701 22.8985C23.9772 21.7341 24.8606 20.2757 25.3335 18.6665C24.0712 19.282 22.6822 19.593 21.2779 19.5746C19.8737 19.5563 18.4933 19.2091 17.2475 18.5609C16.0017 17.9127 14.9251 16.9816 14.1041 15.8422C13.2832 14.7028 12.7407 13.3868 12.5201 11.9999C12.2395 10.1808 12.5234 8.31933 13.3335 6.66655Z" fill="white"/>
</svg>
