<svg width="22" height="22" viewBox="0 0 22 22" fill="none" xmlns="http://www.w3.org/2000/svg">
<path d="M11.0013 19.0209C10.9138 19.0198 10.8271 19.0043 10.7446 18.9751C8.25512 17.8705 6.17245 16.0165 4.78717 13.6715C3.4019 11.3266 2.78311 8.60772 3.01714 5.89424C3.02515 5.74114 3.08479 5.59527 3.18634 5.4804C3.28788 5.36554 3.42534 5.28847 3.57631 5.26174C6.05482 4.88655 8.46232 4.13865 10.7171 3.04341C10.8064 3.00289 10.9033 2.98193 11.0013 2.98193C11.0993 2.98193 11.1962 3.00289 11.2855 3.04341C13.5403 4.13865 15.9478 4.88655 18.4263 5.26174C18.5773 5.28847 18.7147 5.36554 18.8163 5.4804C18.9178 5.59527 18.9775 5.74114 18.9855 5.89424C19.2195 8.60772 18.6007 11.3266 17.2154 13.6715C15.8302 16.0165 13.7475 17.8705 11.258 18.9751C11.1755 19.0043 11.0888 19.0198 11.0013 19.0209V19.0209ZM4.36464 6.51758C4.2281 8.81561 4.7886 11.1013 5.97278 13.0755C7.15695 15.0497 8.90961 16.6203 11.0013 17.5817C13.093 16.6203 14.8457 15.0497 16.0298 13.0755C17.214 11.1013 17.7745 8.81561 17.638 6.51758C15.3395 6.12743 13.1061 5.421 11.0013 4.41841C8.89654 5.421 6.66313 6.12743 4.36464 6.51758V6.51758Z" fill="white"/>
</svg>
