<svg width="32" height="32" viewBox="0 0 32 32" fill="none" xmlns="http://www.w3.org/2000/svg">
<path d="M13 27.6667C12.6044 27.6667 12.2178 27.5494 11.8889 27.3297C11.56 27.1099 11.3036 26.7976 11.1522 26.4321C11.0009 26.0667 10.9613 25.6645 11.0384 25.2766C11.1156 24.8886 11.3061 24.5322 11.5858 24.2525C11.8655 23.9728 12.2219 23.7823 12.6098 23.7052C12.9978 23.628 13.3999 23.6676 13.7654 23.819C14.1308 23.9704 14.4432 24.2267 14.6629 24.5556C14.8827 24.8845 15 25.2712 15 25.6667C15 26.1972 14.7893 26.7059 14.4142 27.081C14.0391 27.456 13.5304 27.6667 13 27.6667Z" fill="white"/>
<path d="M21.6641 27.6667C21.2685 27.6667 20.8818 27.5494 20.5529 27.3297C20.224 27.1099 19.9677 26.7976 19.8163 26.4321C19.6649 26.0667 19.6253 25.6645 19.7025 25.2766C19.7797 24.8886 19.9701 24.5322 20.2498 24.2525C20.5296 23.9728 20.8859 23.7823 21.2739 23.7052C21.6618 23.628 22.064 23.6676 22.4294 23.819C22.7949 23.9704 23.1072 24.2267 23.327 24.5556C23.5468 24.8845 23.6641 25.2712 23.6641 25.6667C23.6641 26.1972 23.4533 26.7059 23.0783 27.081C22.7032 27.456 22.1945 27.6667 21.6641 27.6667Z" fill="white"/>
<path d="M23.9987 22.3334H10.6654C10.4306 22.3313 10.2039 22.2476 10.0239 22.0969C9.84396 21.9461 9.72194 21.7375 9.6787 21.5067L7.1587 7.66675H5.33203C5.06681 7.66675 4.81246 7.56139 4.62492 7.37385C4.43739 7.18632 4.33203 6.93196 4.33203 6.66675C4.33203 6.40153 4.43739 6.14718 4.62492 5.95964C4.81246 5.7721 5.06681 5.66675 5.33203 5.66675H7.9987C8.23346 5.66891 8.46019 5.75252 8.64015 5.9033C8.82011 6.05407 8.94213 6.26266 8.98536 6.49341L9.5587 9.66675H26.6654C26.8172 9.66723 26.967 9.7023 27.1033 9.76929C27.2396 9.83629 27.3589 9.93346 27.452 10.0534C27.544 10.1732 27.6084 10.3117 27.6406 10.4592C27.6729 10.6067 27.6722 10.7595 27.6387 10.9067L24.972 21.5734C24.9162 21.7896 24.7905 21.9814 24.6145 22.1188C24.4385 22.2562 24.222 22.3317 23.9987 22.3334ZM11.5054 20.3334H23.212L25.332 11.6667H9.9187L11.5054 20.3334Z" fill="white"/>
</svg>
