<svg width="32" height="32" viewBox="0 0 32 32" fill="none" xmlns="http://www.w3.org/2000/svg">
<path d="M16.0026 23.6667C14.4863 23.6667 13.004 23.2171 11.7432 22.3746C10.4825 21.5322 9.4998 20.3349 8.91953 18.934C8.33926 17.5331 8.18743 15.9915 8.48325 14.5044C8.77907 13.0172 9.50925 11.6511 10.5815 10.5789C11.6537 9.50669 13.0197 8.77651 14.5069 8.48069C15.9941 8.18487 17.5356 8.3367 18.9365 8.91697C20.3374 9.49724 21.5348 10.4799 22.3772 11.7407C23.2196 13.0015 23.6693 14.4837 23.6693 16C23.6658 18.0323 22.8569 19.9803 21.4199 21.4173C19.9829 22.8543 18.0349 23.6632 16.0026 23.6667ZM16.0026 10.3334C14.8818 10.3334 13.7863 10.6657 12.8544 11.2884C11.9225 11.911 11.1962 12.7961 10.7673 13.8315C10.3384 14.867 10.2262 16.0063 10.4448 17.1056C10.6635 18.2048 11.2032 19.2145 11.9957 20.007C12.7882 20.7995 13.7979 21.3392 14.8971 21.5578C15.9963 21.7765 17.1357 21.6643 18.1711 21.2354C19.2066 20.8065 20.0916 20.0802 20.7143 19.1483C21.3369 18.2164 21.6693 17.1208 21.6693 16C21.6658 14.4982 21.0676 13.0589 20.0057 11.997C18.9437 10.9351 17.5044 10.3369 16.0026 10.3334Z" fill="black"/>
<path d="M16 6.66675C15.7359 6.66329 15.4835 6.55683 15.2967 6.37004C15.1099 6.18324 15.0035 5.93089 15 5.66675V3.66675C15 3.40153 15.1054 3.14718 15.2929 2.95964C15.4804 2.7721 15.7348 2.66675 16 2.66675C16.2652 2.66675 16.5196 2.7721 16.7071 2.95964C16.8946 3.14718 17 3.40153 17 3.66675V5.66675C16.9965 5.93089 16.8901 6.18324 16.7033 6.37004C16.5165 6.55683 16.2641 6.66329 16 6.66675Z" fill="black"/>
<path d="M16 29.3334C15.7359 29.3299 15.4835 29.2235 15.2967 29.0367C15.1099 28.8499 15.0035 28.5975 15 28.3334V26.3334C15 26.0682 15.1054 25.8138 15.2929 25.6263C15.4804 25.4387 15.7348 25.3334 16 25.3334C16.2652 25.3334 16.5196 25.4387 16.7071 25.6263C16.8946 25.8138 17 26.0682 17 26.3334V28.3334C16.9965 28.5975 16.8901 28.8499 16.7033 29.0367C16.5165 29.2235 16.2641 29.3299 16 29.3334Z" fill="black"/>
<path d="M28.3359 17.0001H26.3359C26.0707 17.0001 25.8164 16.8948 25.6288 16.7072C25.4413 16.5197 25.3359 16.2653 25.3359 16.0001C25.3359 15.7349 25.4413 15.4806 25.6288 15.293C25.8164 15.1055 26.0707 15.0001 26.3359 15.0001H28.3359C28.6012 15.0001 28.8555 15.1055 29.043 15.293C29.2306 15.4806 29.3359 15.7349 29.3359 16.0001C29.3359 16.2653 29.2306 16.5197 29.043 16.7072C28.8555 16.8948 28.6012 17.0001 28.3359 17.0001Z" fill="black"/>
<path d="M5.66797 17.0001H3.66797C3.40275 17.0001 3.1484 16.8948 2.96086 16.7072C2.77333 16.5197 2.66797 16.2653 2.66797 16.0001C2.66797 15.7349 2.77333 15.4806 2.96086 15.293C3.1484 15.1055 3.40275 15.0001 3.66797 15.0001H5.66797C5.93319 15.0001 6.18754 15.1055 6.37508 15.293C6.56261 15.4806 6.66797 15.7349 6.66797 16.0001C6.66797 16.2653 6.56261 16.5197 6.37508 16.7072C6.18754 16.8948 5.93319 17.0001 5.66797 17.0001Z" fill="black"/>
<path d="M8.66709 9.66672C8.40983 9.64705 8.17051 9.52739 8.00042 9.33339L6.54709 8.00006C6.45166 7.90463 6.37596 7.79134 6.32432 7.66666C6.27267 7.54198 6.24609 7.40834 6.24609 7.27339C6.24609 7.13843 6.27268 7.0048 6.32432 6.88012C6.37596 6.75544 6.45166 6.64215 6.54709 6.54672C6.64252 6.4513 6.7558 6.3756 6.88049 6.32395C7.00517 6.27231 7.1388 6.24573 7.27376 6.24573C7.40871 6.24573 7.54234 6.27231 7.66702 6.32395C7.79171 6.3756 7.905 6.4513 8.00042 6.54672L9.33376 8.00006C9.49774 8.1834 9.5884 8.42075 9.5884 8.66672C9.5884 8.9127 9.49774 9.15005 9.33376 9.33339C9.16366 9.52739 8.92435 9.64705 8.66709 9.66672Z" fill="black"/>
<path d="M24.7479 25.7467C24.6166 25.7473 24.4864 25.7217 24.365 25.6713C24.2437 25.621 24.1336 25.5469 24.0413 25.4534L22.6679 24.0001C22.5788 23.8135 22.5497 23.6038 22.5847 23.4C22.6197 23.1962 22.717 23.0082 22.8632 22.862C23.0094 22.7158 23.1974 22.6185 23.4012 22.5835C23.605 22.5485 23.8147 22.5776 24.0013 22.6667L25.4546 24.0001C25.6419 24.1876 25.7471 24.4417 25.7471 24.7067C25.7471 24.9717 25.6419 25.2259 25.4546 25.4134C25.3657 25.5141 25.2572 25.5957 25.1357 25.653C25.0142 25.7103 24.8822 25.7422 24.7479 25.7467Z" fill="black"/>
<path d="M23.3354 9.66672C23.0781 9.64705 22.8388 9.52739 22.6687 9.33339C22.5047 9.15005 22.4141 8.9127 22.4141 8.66672C22.4141 8.42075 22.5047 8.1834 22.6687 8.00006L24.002 6.54672C24.1948 6.354 24.4562 6.24573 24.7287 6.24573C25.0013 6.24573 25.2626 6.354 25.4554 6.54672C25.6481 6.73945 25.7564 7.00084 25.7564 7.27339C25.7564 7.54594 25.6481 7.80733 25.4554 8.00006L24.002 9.33339C23.8319 9.52739 23.5926 9.64705 23.3354 9.66672Z" fill="black"/>
<path d="M7.25303 25.7467C7.12164 25.7473 6.99145 25.7217 6.8701 25.6713C6.74875 25.621 6.63869 25.5469 6.54636 25.4534C6.35909 25.2659 6.25391 25.0117 6.25391 24.7467C6.25391 24.4817 6.35909 24.2276 6.54636 24.0401L7.99969 22.6667C8.1863 22.5776 8.39594 22.5485 8.59976 22.5835C8.80358 22.6185 8.99154 22.7158 9.13776 22.862C9.28399 23.0082 9.38129 23.1962 9.41626 23.4C9.45122 23.6038 9.42215 23.8135 9.33303 24.0001L7.99969 25.4534C7.90272 25.5518 7.78614 25.6288 7.65752 25.6794C7.52889 25.7299 7.39109 25.7528 7.25303 25.7467Z" fill="black"/>
</svg>
