<svg width="22" height="22" viewBox="0 0 22 22" fill="none" xmlns="http://www.w3.org/2000/svg">
<path d="M9.62428 7.56239C9.44742 7.54886 9.28289 7.4666 9.16595 7.33322L7.33262 5.49989L5.49928 7.33322C5.45188 7.43247 5.38136 7.5189 5.29364 7.58525C5.20592 7.6516 5.10357 7.69594 4.99516 7.71453C4.88676 7.73313 4.77548 7.72545 4.67066 7.69214C4.56584 7.65882 4.47054 7.60084 4.39277 7.52307C4.315 7.4453 4.25702 7.35 4.2237 7.24518C4.19039 7.14036 4.18271 7.02908 4.20131 6.92068C4.21991 6.81227 4.26424 6.70992 4.33059 6.6222C4.39694 6.53448 4.48337 6.46396 4.58262 6.41656L6.87428 4.12489C7.00319 3.99614 7.17793 3.92383 7.36012 3.92383C7.54231 3.92383 7.71705 3.99614 7.84595 4.12489L10.0826 6.41656C10.1954 6.5426 10.2577 6.70578 10.2577 6.87489C10.2577 7.044 10.1954 7.20718 10.0826 7.33322C9.96568 7.4666 9.80115 7.54886 9.62428 7.56239V7.56239Z" fill="white"/>
<path d="M7.33203 18.1041C7.15043 18.1017 6.97694 18.0285 6.84852 17.9001C6.7201 17.7717 6.64691 17.5982 6.64453 17.4166V4.58325C6.64453 4.40092 6.71696 4.22605 6.8459 4.09712C6.97483 3.96818 7.14969 3.89575 7.33203 3.89575C7.51437 3.89575 7.68924 3.96818 7.81817 4.09712C7.9471 4.22605 8.01953 4.40092 8.01953 4.58325V17.4166C8.01716 17.5982 7.94396 17.7717 7.81554 17.9001C7.68712 18.0285 7.51363 18.1017 7.33203 18.1041V18.1041Z" fill="white"/>
<path d="M14.6646 18.1041C14.5743 18.1045 14.4848 18.0869 14.4014 18.0523C14.318 18.0176 14.2423 17.9667 14.1788 17.9024L11.9146 15.5833C11.8154 15.5359 11.729 15.4653 11.6626 15.3776C11.5963 15.2899 11.5519 15.1876 11.5333 15.0791C11.5147 14.9707 11.5224 14.8595 11.5557 14.7546C11.5891 14.6498 11.647 14.5545 11.7248 14.4768C11.8026 14.399 11.8979 14.341 12.0027 14.3077C12.1075 14.2744 12.2188 14.2667 12.3272 14.2853C12.4356 14.3039 12.538 14.3482 12.6257 14.4146C12.7134 14.4809 12.7839 14.5674 12.8313 14.6666L14.6646 16.4999L16.498 14.6666C16.5454 14.5674 16.6159 14.4809 16.7036 14.4146C16.7913 14.3482 16.8937 14.3039 17.0021 14.2853C17.1105 14.2667 17.2218 14.2744 17.3266 14.3077C17.4314 14.341 17.5267 14.399 17.6045 14.4768C17.6823 14.5545 17.7402 14.6498 17.7736 14.7546C17.8069 14.8595 17.8146 14.9707 17.796 15.0791C17.7774 15.1876 17.733 15.2899 17.6667 15.3776C17.6003 15.4653 17.5139 15.5359 17.4146 15.5833L15.123 17.8749C15.006 18.0083 14.8415 18.0906 14.6646 18.1041Z" fill="white"/>
<path d="M14.6641 18.1041C14.4825 18.1017 14.309 18.0285 14.1806 17.9001C14.0521 17.7717 13.9789 17.5982 13.9766 17.4166V4.58325C13.9766 4.40092 14.049 4.22605 14.1779 4.09712C14.3069 3.96818 14.4817 3.89575 14.6641 3.89575C14.8464 3.89575 15.0213 3.96818 15.1502 4.09712C15.2791 4.22605 15.3516 4.40092 15.3516 4.58325V17.4166C15.3492 17.5982 15.276 17.7717 15.1476 17.9001C15.0192 18.0285 14.8457 18.1017 14.6641 18.1041V18.1041Z" fill="white"/>
</svg>
