<svg width="30" height="30" viewBox="0 0 30 30" fill="none" xmlns="http://www.w3.org/2000/svg">
<path d="M11.25 14.0625H7.5C6.75408 14.0625 6.03871 13.7662 5.51126 13.2387C4.98382 12.7113 4.6875 11.9959 4.6875 11.25V7.5C4.6875 6.75408 4.98382 6.03871 5.51126 5.51126C6.03871 4.98382 6.75408 4.6875 7.5 4.6875H11.25C11.9959 4.6875 12.7113 4.98382 13.2387 5.51126C13.7662 6.03871 14.0625 6.75408 14.0625 7.5V11.25C14.0625 11.9959 13.7662 12.7113 13.2387 13.2387C12.7113 13.7662 11.9959 14.0625 11.25 14.0625ZM7.5 6.5625C7.25237 6.56574 7.01579 6.66555 6.84067 6.84067C6.66555 7.01579 6.56574 7.25237 6.5625 7.5V11.25C6.56574 11.4976 6.66555 11.7342 6.84067 11.9093C7.01579 12.0845 7.25237 12.1843 7.5 12.1875H11.25C11.4976 12.1843 11.7342 12.0845 11.9093 11.9093C12.0845 11.7342 12.1843 11.4976 12.1875 11.25V7.5C12.1843 7.25237 12.0845 7.01579 11.9093 6.84067C11.7342 6.66555 11.4976 6.56574 11.25 6.5625H7.5Z" fill="black"/>
<path d="M11.25 25.3125H7.5C6.75408 25.3125 6.03871 25.0162 5.51126 24.4887C4.98382 23.9613 4.6875 23.2459 4.6875 22.5V18.75C4.6875 18.0041 4.98382 17.2887 5.51126 16.7613C6.03871 16.2338 6.75408 15.9375 7.5 15.9375H11.25C11.9959 15.9375 12.7113 16.2338 13.2387 16.7613C13.7662 17.2887 14.0625 18.0041 14.0625 18.75V22.5C14.0625 23.2459 13.7662 23.9613 13.2387 24.4887C12.7113 25.0162 11.9959 25.3125 11.25 25.3125ZM7.5 17.8125C7.25237 17.8157 7.01579 17.9155 6.84067 18.0907C6.66555 18.2658 6.56574 18.5024 6.5625 18.75V22.5C6.56574 22.7476 6.66555 22.9842 6.84067 23.1593C7.01579 23.3345 7.25237 23.4343 7.5 23.4375H11.25C11.4976 23.4343 11.7342 23.3345 11.9093 23.1593C12.0845 22.9842 12.1843 22.7476 12.1875 22.5V18.75C12.1843 18.5024 12.0845 18.2658 11.9093 18.0907C11.7342 17.9155 11.4976 17.8157 11.25 17.8125H7.5Z" fill="black"/>
<path d="M22.5 14.0625H18.75C18.0041 14.0625 17.2887 13.7662 16.7613 13.2387C16.2338 12.7113 15.9375 11.9959 15.9375 11.25V7.5C15.9375 6.75408 16.2338 6.03871 16.7613 5.51126C17.2887 4.98382 18.0041 4.6875 18.75 4.6875H22.5C23.2459 4.6875 23.9613 4.98382 24.4887 5.51126C25.0162 6.03871 25.3125 6.75408 25.3125 7.5V11.25C25.3125 11.9959 25.0162 12.7113 24.4887 13.2387C23.9613 13.7662 23.2459 14.0625 22.5 14.0625ZM18.75 6.5625C18.5024 6.56574 18.2658 6.66555 18.0907 6.84067C17.9155 7.01579 17.8157 7.25237 17.8125 7.5V11.25C17.8157 11.4976 17.9155 11.7342 18.0907 11.9093C18.2658 12.0845 18.5024 12.1843 18.75 12.1875H22.5C22.7476 12.1843 22.9842 12.0845 23.1593 11.9093C23.3345 11.7342 23.4343 11.4976 23.4375 11.25V7.5C23.4343 7.25237 23.3345 7.01579 23.1593 6.84067C22.9842 6.66555 22.7476 6.56574 22.5 6.5625H18.75Z" fill="black"/>
<path d="M22.5 25.3125H18.75C18.0041 25.3125 17.2887 25.0162 16.7613 24.4887C16.2338 23.9613 15.9375 23.2459 15.9375 22.5V18.75C15.9375 18.0041 16.2338 17.2887 16.7613 16.7613C17.2887 16.2338 18.0041 15.9375 18.75 15.9375H22.5C23.2459 15.9375 23.9613 16.2338 24.4887 16.7613C25.0162 17.2887 25.3125 18.0041 25.3125 18.75V22.5C25.3125 23.2459 25.0162 23.9613 24.4887 24.4887C23.9613 25.0162 23.2459 25.3125 22.5 25.3125ZM18.75 17.8125C18.5024 17.8157 18.2658 17.9155 18.0907 18.0907C17.9155 18.2658 17.8157 18.5024 17.8125 18.75V22.5C17.8157 22.7476 17.9155 22.9842 18.0907 23.1593C18.2658 23.3345 18.5024 23.4343 18.75 23.4375H22.5C22.7476 23.4343 22.9842 23.3345 23.1593 23.1593C23.3345 22.9842 23.4343 22.7476 23.4375 22.5V18.75C23.4343 18.5024 23.3345 18.2658 23.1593 18.0907C22.9842 17.9155 22.7476 17.8157 22.5 17.8125H18.75Z" fill="black"/>
</svg>
