<svg width="32" height="32" viewBox="0 0 32 32" fill="none" xmlns="http://www.w3.org/2000/svg">
<path d="M16 16.3333C15.0111 16.3333 14.0444 16.04 13.2222 15.4906C12.3999 14.9412 11.759 14.1603 11.3806 13.2467C11.0022 12.333 10.9031 11.3277 11.0961 10.3578C11.289 9.3879 11.7652 8.49698 12.4645 7.79772C13.1637 7.09846 14.0546 6.62225 15.0246 6.42933C15.9945 6.2364 16.9998 6.33542 17.9134 6.71386C18.827 7.09229 19.6079 7.73316 20.1574 8.5554C20.7068 9.37765 21 10.3443 21 11.3333C21 12.6593 20.4732 13.9311 19.5355 14.8688C18.5979 15.8065 17.3261 16.3333 16 16.3333ZM16 8.33325C15.4067 8.33325 14.8266 8.5092 14.3333 8.83885C13.8399 9.16849 13.4554 9.63703 13.2284 10.1852C13.0013 10.7334 12.9419 11.3366 13.0576 11.9185C13.1734 12.5005 13.4591 13.035 13.8787 13.4546C14.2982 13.8741 14.8328 14.1599 15.4147 14.2756C15.9967 14.3914 16.5999 14.332 17.1481 14.1049C17.6962 13.8778 18.1648 13.4933 18.4944 13C18.8241 12.5066 19 11.9266 19 11.3333C19 10.5376 18.6839 9.77454 18.1213 9.21193C17.5587 8.64932 16.7957 8.33325 16 8.33325Z" fill="white"/>
<path d="M25.3346 25.6666C25.0705 25.6631 24.8181 25.5567 24.6314 25.3699C24.4446 25.1831 24.3381 24.9307 24.3346 24.6666C24.3346 22.0666 22.9213 20.3333 16.0013 20.3333C9.0813 20.3333 7.66797 22.0666 7.66797 24.6666C7.66797 24.9318 7.56261 25.1862 7.37508 25.3737C7.18754 25.5612 6.93319 25.6666 6.66797 25.6666C6.40275 25.6666 6.1484 25.5612 5.96086 25.3737C5.77333 25.1862 5.66797 24.9318 5.66797 24.6666C5.66797 18.3333 12.908 18.3333 16.0013 18.3333C19.0946 18.3333 26.3346 18.3333 26.3346 24.6666C26.3312 24.9307 26.2247 25.1831 26.0379 25.3699C25.8511 25.5567 25.5988 25.6631 25.3346 25.6666Z" fill="white"/>
</svg>
