<svg width="32" height="32" viewBox="0 0 32 32" fill="none" xmlns="http://www.w3.org/2000/svg">
<path d="M16 16.3334C15.0111 16.3334 14.0444 16.0401 13.2222 15.4907C12.3999 14.9413 11.759 14.1604 11.3806 13.2468C11.0022 12.3332 10.9031 11.3278 11.0961 10.3579C11.289 9.38802 11.7652 8.4971 12.4645 7.79784C13.1637 7.09858 14.0546 6.62238 15.0246 6.42945C15.9945 6.23652 16.9998 6.33554 17.9134 6.71398C18.827 7.09242 19.6079 7.73328 20.1574 8.55553C20.7068 9.37777 21 10.3445 21 11.3334C21 12.6595 20.4732 13.9312 19.5355 14.8689C18.5979 15.8066 17.3261 16.3334 16 16.3334ZM16 8.33338C15.4067 8.33338 14.8266 8.50932 14.3333 8.83897C13.8399 9.16861 13.4554 9.63715 13.2284 10.1853C13.0013 10.7335 12.9419 11.3367 13.0576 11.9186C13.1734 12.5006 13.4591 13.0351 13.8787 13.4547C14.2982 13.8743 14.8328 14.16 15.4147 14.2757C15.9967 14.3915 16.5999 14.3321 17.1481 14.105C17.6962 13.878 18.1648 13.4934 18.4944 13.0001C18.8241 12.5067 19 11.9267 19 11.3334C19 10.5377 18.6839 9.77467 18.1213 9.21206C17.5587 8.64945 16.7957 8.33338 16 8.33338Z" fill="black"/>
<path d="M25.3346 25.6667C25.0705 25.6633 24.8181 25.5568 24.6314 25.37C24.4446 25.1832 24.3381 24.9308 24.3346 24.6667C24.3346 22.0667 22.9213 20.3334 16.0013 20.3334C9.0813 20.3334 7.66797 22.0667 7.66797 24.6667C7.66797 24.9319 7.56261 25.1863 7.37508 25.3738C7.18754 25.5614 6.93319 25.6667 6.66797 25.6667C6.40275 25.6667 6.1484 25.5614 5.96086 25.3738C5.77333 25.1863 5.66797 24.9319 5.66797 24.6667C5.66797 18.3334 12.908 18.3334 16.0013 18.3334C19.0946 18.3334 26.3346 18.3334 26.3346 24.6667C26.3312 24.9308 26.2247 25.1832 26.0379 25.37C25.8511 25.5568 25.5988 25.6633 25.3346 25.6667Z" fill="black"/>
</svg>
